<svg xmlns="http://www.w3.org/2000/svg" width="159.843" height="159.843" viewBox="0 0 159.843 159.843"><defs><style>.a{fill:#1a1818;}.b{fill:#fff;}.c{fill:#d90018;}</style></defs><g transform="translate(-828.216 -14.344)"><path class="a" d="M927.186,36.823a76.491,76.491,0,1,0,76.49,76.491,76.577,76.577,0,0,0-76.49-76.491" transform="translate(-19.048 -19.048)"/><path class="b" d="M908.139,14.344a79.922,79.922,0,1,0,79.92,79.922,80.013,80.013,0,0,0-79.92-79.922m52.627,84.947c.944,1.409,2.71,2.331,5.268,2.75l.322.043c.466.057,1.558.2,1.895.674a1.612,1.612,0,0,1,.06,1.233c-.356,1.227-1.758,1.216-2.741,1.4-3.4.618-7.107-4.384-7.107-4.384l-2.575,2.4c-.292.311-3.361,2.966-6.206.717a4.609,4.609,0,0,1-1.034-4.047,14.522,14.522,0,0,0,2.842.485c.418.031.817.045,1.2.045,2.4,0,4.088-.564,5.133-1.713a4.93,4.93,0,0,0,.975-4.206,4.577,4.577,0,0,0-4.532-3.656c-4.111-.385-7.113,2.974-8.278,6.484a9.357,9.357,0,0,0,.39,7.473,2.572,2.572,0,0,1-2.243-2.167,7.455,7.455,0,0,0-1.935-3.8,9.909,9.909,0,0,0,3.264-6.9h-3.2a6.624,6.624,0,0,1-2.225,4.563,6.939,6.939,0,0,1-4.078,1.353l.865-13.011h-3.19l-1.329,20.025h-1.022a1.2,1.2,0,0,1-1.3-1.211l.84-11.126h-3.188l-.826,10.968,0,.1a4.369,4.369,0,0,0,3.965,4.389l-.008.051h4.522l.464-7a11.526,11.526,0,0,0,3.441-.545,3.921,3.921,0,0,1,1.833,2.8,5.755,5.755,0,0,0,5.513,4.721v.028h5.491a8.391,8.391,0,0,0,6.438-2.968,6.89,6.89,0,0,0,6.283,3.375,8.187,8.187,0,0,0,1.328-.1c2.443-.393,4.9-1.834,5.345-3.853a4.569,4.569,0,0,0-.57-3.746,5.681,5.681,0,0,0-4.091-2l-.214-.028-.025,0c-2.137-.348-2.867-1.011-3.111-1.376a1.389,1.389,0,0,1-.141-1.154l.044-.154a1.462,1.462,0,0,1,.938-1.051c1.162-.558,2.6-.368,4.308.208,1.423.475,12.314,4.4,15.915,5.7a76.636,76.636,0,0,1-151.624,7.52c5.942-.107,14.148-.3,14.661-.3,5.013,0,7.014-1.135,8.087-1.746.11-.061.207-.116.3-.163,1.491-.764,3.8-2.813,4.612-8.239a18.816,18.816,0,0,0,1.638.93c-.61,3.042.1,5.973,1.995,7.628l.052.044a6.871,6.871,0,0,0,4.362,1.637,8.226,8.226,0,0,0,5.657-2.558l.011.009,2.411-2.188v.042l-.006.1a4.386,4.386,0,0,0,4.286,4.44,9.411,9.411,0,0,0,4.414-1.242,5.065,5.065,0,0,0,2.947.86,8.588,8.588,0,0,0,1.781-.2,9.4,9.4,0,0,0,3.2-1.264,5.241,5.241,0,0,0,3.856,1.727,5.151,5.151,0,0,0,1.454-.21,5.894,5.894,0,0,0,3.134-1.91c.061.092.127.185.2.275a4.124,4.124,0,0,0,3.381,1.44v-3.182a1.26,1.26,0,0,1-.907-.258,1.949,1.949,0,0,1-.177-1.316,31.832,31.832,0,0,0,.874-6.959,4.9,4.9,0,0,0-1.564-3.558c-1.165-1.022-2.87-1.435-5.215-1.267a5.3,5.3,0,0,0-3.935,1.876,5.806,5.806,0,0,0-1.1,4.2l3.15-.44a2.634,2.634,0,0,1,.439-1.78,2.313,2.313,0,0,1,1.677-.687,4.274,4.274,0,0,1,2.889.488,1.762,1.762,0,0,1,.486,1.35,11.614,11.614,0,0,1-.064,1.677c-2.687-.332-6.779-.318-8.739,2.365a5.223,5.223,0,0,0-1.078,3.243,6.23,6.23,0,0,1-1.691.823c-1.5.485-2.646.513-3.24.067a2.652,2.652,0,0,1-.725-1.935l.548-7.638h5.246l.239-3.181h-5.258l.432-5.993H884.37l-.428,5.993h-1.62l-.24,3.181h1.632l-.532,7.428,0,.025a6.668,6.668,0,0,0,.35,2.319,6.914,6.914,0,0,1-2.423.508,1.2,1.2,0,0,1-1.3-1.211L881.183,85.6H878l-1.007,13.312-5,4.673-.017-.017c-.115.124-2.831,3.028-5.755.713a4.609,4.609,0,0,1-1.044-4.047,14.281,14.281,0,0,0,2.848.486c3.052.207,5.12-.34,6.331-1.668a4.916,4.916,0,0,0,.974-4.209c-.458-2.8-3.12-3.611-4.532-3.656-3.079-.283-5.932,1.555-7.592,4.844a27.746,27.746,0,0,1-2.414-1.556c.006-.2.016-.39.016-.6l-.006-.141c-.513-5.8-4.543-9.127-11.051-9.127a17.086,17.086,0,0,0-2.952.244l-1.148.225-2.233,20.467-11.052.253a76.654,76.654,0,1,1,152.437-11.53c0,1.241-.036,2.475-.093,3.7-3.387-1.292-12.552-4.771-14.732-5.453-2.688-.842-5.049-1.207-7.1-.225a4.705,4.705,0,0,0-2.65,3.165l-.04.138a4.617,4.617,0,0,0,.586,3.7m-11.118-2.236c.947-1.707,2.482-3.045,4.356-2.851l.143.009c.012,0,1.353.025,1.5.989.169,1.023-.023,1.378-.183,1.553-.231.253-1.059.818-3.763.637a11.278,11.278,0,0,1-2.058-.337M846.655,105.09l1.884-17.259c.343-.025.752-.045,1.2-.045,4.836,0,7.487,2.07,7.877,6.159-.017,7.4-2.432,9.219-3.173,9.6-.127.062-.264.141-.415.228-.879.5-2.343,1.328-6.519,1.328-.275,0-.559,0-.854-.009m49.006-3c.66-.905,2.219-1.2,3.847-1.2.519,0,1.045.033,1.548.081-1.25,3.137-2.757,3.707-3.027,3.789l-.075-.008-.245.082a2.1,2.1,0,0,1-2.261-.725,1.609,1.609,0,0,1,.213-2.019M866.173,97.21c.9-1.615,2.412-3.053,4.358-2.855l.143.008c.014,0,1.352.026,1.507.989.167,1.028-.025,1.378-.187,1.553-.231.255-1.054.82-3.763.638a11.792,11.792,0,0,1-2.058-.334" transform="translate(0 0)"/><path class="b" d="M1479.854,489.174a1.958,1.958,0,1,0,1.96,1.958,1.957,1.957,0,0,0-1.96-1.958" transform="translate(-550.53 -402.363)"/><path class="b" d="M1374.4,485.712a6.9,6.9,0,0,0,1.477-5.016,5.852,5.852,0,0,0-5.729-6.034l-7.793-.172-1.986,23.129h10.416a5.991,5.991,0,0,0,6-6.361c0-3.136-1.146-4.718-2.382-5.546m-9.13-7.972,4.823.1h.036c.252,0,2.469.084,2.57,2.962a3.853,3.853,0,0,1-.714,2.834c-.739.767-2.187.921-4.137.921-.277,0-2.387-.02-3.17.037Zm5.5,16.7h-6.939l.561-6.509c.993-.033,6.666-.026,6.883.008,1.14.174,2.319.357,2.319,3.322,0,2.89-2.152,3.165-2.823,3.179" transform="translate(-450.936 -389.92)"/><path class="c" d="M1204.108,182.33a14.635,14.635,0,0,0-22.155-10.477l.815-2.567c2.224-.2,4.957-.909,6.422-3.072,2.222-3.28-.04-6.85-1.46-8.186a7.757,7.757,0,0,0-5.151-2.761c-2.372-.193-4.784.842-7.161,3.073-.629.592-1.072,1.076-1.351,1.395l-18.242-3.2c-.253-.051-6.347-1.23-9.131,1.887-1.5,1.677-1.721,4.195-.652,7.517a20.561,20.561,0,0,0,2.064,4.106,14.884,14.884,0,0,0-11.242,16.42,14.8,14.8,0,0,0,14.625,12.757,15.045,15.045,0,0,0,2.073-.143,14.8,14.8,0,0,0,11.594-20.4s0,0,0,0c-.042-.1-.1-.2-.146-.3l.214-.2a5.031,5.031,0,0,0,1.376-3.99c-.272-1.479-1.426-2.7-3.395-3.611l-.753-.408c2.479.532,6.956,1.353,9.04,1.727l-2.358,4.417a3.148,3.148,0,0,0-.354,2.662c.391,1.106,1.45,1.934,3.157,2.459.7.214,1.864.6,3.135,1.037a14.651,14.651,0,1,0,29.037-.127m-42.092,10.023a13.155,13.155,0,0,1-23.526-6.114,13.226,13.226,0,0,1,10.66-14.744,18.7,18.7,0,0,0,3.755,3.5l.253.189c-.578.416-6.463,4.647-6.458,4.651a1.753,1.753,0,0,0-.827,1.061,1.634,1.634,0,0,0,.27,1.319c.088.13.255.427.479.823a23.684,23.684,0,0,0,3.6,5.279,3.036,3.036,0,0,0,1.019.595,2.71,2.71,0,0,0,.774.112,1.846,1.846,0,0,0,1.449-.62c.522-.616.584-1.564.188-2.913a20.737,20.737,0,0,0,3.662,3.592,3.131,3.131,0,0,0,1.106.418c.037,0,.151.016.306.016a2.012,2.012,0,0,0,1.8-.9c.613-1.04.113-2.618-1.61-5,1.18-.924,3.33-2.794,4.81-4.094a13.239,13.239,0,0,1,.833,3.086,13.084,13.084,0,0,1-2.533,9.747m-4.592-7.984c2,2.687,1.684,3.412,1.681,3.418a.711.711,0,0,1-.466.089,1.516,1.516,0,0,1-.484-.2c-1.126-.677-3.591-3.625-4.642-4.884,0,0,0,0-.006,0,2.93-1.586,6.2-3.76,6.376-3.881a5.491,5.491,0,0,0,1.892-2.7,12.946,12.946,0,0,1,1.213,1.766c-1.5,1.314-4.378,3.836-5.425,4.6a1.1,1.1,0,0,0-.466.739,1.4,1.4,0,0,0,.327,1.053m14.993-4.519c-1.155-.354-1.876-.846-2.09-1.423a1.605,1.605,0,0,1,.21-1.281l3.463-6.481-1.113-.2c-.076-.014-7.659-1.365-10.595-2.025-.814-.183-2.511-.564-2.923.53-.4,1.061,1.054,1.952,1.513,2.2l1.589.862c1.494.691,2.339,1.513,2.511,2.43a3.163,3.163,0,0,1-.776,2.372,14.752,14.752,0,0,0-2.727-3.355c-.02-.015-.044-.022-.062-.039a6.851,6.851,0,0,0-2.218-2.364l-2.8-2.216a.821.821,0,1,0-1.017,1.289l2.848,2.244c1.351.941,2.042,1.892,2.055,2.83a3.4,3.4,0,0,1-1.333,2.339c-.042.028-3.968,2.647-6.989,4.195a.967.967,0,0,0-.132.065c-.084.042-.169.089-.255.13a1.09,1.09,0,0,0-.578.662,1.414,1.414,0,0,0,.143,1.076c1.513,2.989,1.076,3.648,1.073,3.654a.7.7,0,0,1-.474.006,1.55,1.55,0,0,1-.444-.276,24.865,24.865,0,0,1-3.24-4.841,3.657,3.657,0,0,1-.475-1.011s6.275-4.512,6.544-4.706a1.621,1.621,0,0,0,.859-1.276,1.561,1.561,0,0,0-.738-1.28l-.37-.291a16.673,16.673,0,0,1-6.28-8.27c-.866-2.691-.757-4.671.323-5.884,2.157-2.418,7.536-1.384,7.606-1.368l18.725,3.286a.717.717,0,0,0,.116,0,.821.821,0,0,0,.163,0,.584.584,0,0,0,.147-.048.61.61,0,0,0,.143-.062.735.735,0,0,0,.129-.11.543.543,0,0,0,.086-.07,16.482,16.482,0,0,1,1.509-1.6c2.019-1.893,3.982-2.777,5.888-2.636a6.263,6.263,0,0,1,4.083,2.221c.138.132,3.316,3.229,1.322,6.172-1.562,2.3-5.339,2.48-7.214,2.413a3.265,3.265,0,0,0,.165-.787.818.818,0,0,0-.775-.862.807.807,0,0,0-.863.776,5.792,5.792,0,0,1-.714,1.736,39.211,39.211,0,0,1-2.341,4.991,3.47,3.47,0,0,0-.531,2.978,2.831,2.831,0,0,0,1.573,1.628c.033.011,3.19,1.255,6.266,2.6,2.715,1.186,3.533,2.968,2.573,5.6-.292.806-.638,1.145-.823,1.129-.318-.031-.873-.679-1.016-1.623a3.791,3.791,0,0,0-2.283-2.806c-.289-.1-7.15-2.519-9.433-3.224m7.276-6.288a14.8,14.8,0,0,0-2.362,2.788,1,1,0,0,1-.227-.348,2.1,2.1,0,0,1,.388-1.592,36.793,36.793,0,0,0,2.4-5.1c.289.022.682.042,1.132.047Zm1.9,3.511c.041.014,4.115,1.6,7.192,2.946,2.594,1.138,3.309,2.732,2.549,5.684-.151.579-.4.949-.607.952-.374-.023-1.022-.707-1.149-1.609a5.321,5.321,0,0,0-.955-2.864,7.988,7.988,0,0,0-3.642-2.44h-.006a10.065,10.065,0,0,0-.915-.475c-2.006-.879-4.032-1.71-5.239-2.193a13.411,13.411,0,0,1,1.1-1.41,3.126,3.126,0,0,0,1.677,1.408m9.793,20.177a12.917,12.917,0,0,1-14.718-14.244c2.354.811,4.586,1.6,4.613,1.606a2.135,2.135,0,0,1,1.227,1.517c.217,1.4,1.138,2.876,2.482,3.008a1.75,1.75,0,0,0,.183.009c.644,0,1.663-.34,2.342-2.21a7.972,7.972,0,0,0,.417-1.792c0,.047.014.081.021.129a3.361,3.361,0,0,0,2.681,3.018c.034,0,.067,0,.106,0,.557,0,1.686-.252,2.185-2.182.957-3.721-.149-6.134-3.48-7.6-3.108-1.36-7.219-2.958-7.251-2.972-.823-.323-.98-.831-.988-1.148a13.019,13.019,0,1,1,10.181,22.854" transform="translate(-261.425 -119.397)"/><path class="c" d="M1087.492,688.485a1.19,1.19,0,0,0-.361-1,1.718,1.718,0,0,0-1.054-.278,4.445,4.445,0,0,0-.794.068,5.3,5.3,0,0,0-.718.177,1.893,1.893,0,0,1-.231-.958,5.716,5.716,0,0,1,.908-.206,6.6,6.6,0,0,1,.956-.071,2.727,2.727,0,0,1,1.84.551,2.232,2.232,0,0,1,.628,1.761v3.883c-.282.065-.624.132-1.027.2a7.223,7.223,0,0,1-1.235.1,4.8,4.8,0,0,1-1.072-.11,2.169,2.169,0,0,1-.813-.348,1.645,1.645,0,0,1-.51-.618,2.048,2.048,0,0,1-.183-.908,1.918,1.918,0,0,1,.21-.913,1.89,1.89,0,0,1,.575-.654,2.7,2.7,0,0,1,.835-.388,3.858,3.858,0,0,1,.992-.126c.261,0,.471.006.637.019s.305.026.416.042Zm0,1.172c-.119-.017-.273-.032-.458-.05s-.345-.023-.472-.023a1.955,1.955,0,0,0-1.146.28.968.968,0,0,0-.392.846,1.033,1.033,0,0,0,.134.568.915.915,0,0,0,.333.315,1.113,1.113,0,0,0,.44.134c.164.016.317.023.461.023.186,0,.377-.011.575-.03a3.786,3.786,0,0,0,.525-.09Z" transform="translate(-216.6 -569.337)"/><path class="c" d="M1141.554,686.9c.113-.016.225-.028.339-.036s.214-.012.3-.012c.114,0,.229.006.345.012a2.955,2.955,0,0,1,.309.036l1.211,5.072,1.366-5.072a2.906,2.906,0,0,1,.291-.036c.1-.006.213-.012.326-.012.129.008.24.016.332.019a2.178,2.178,0,0,1,.272.03l1.355,4.988,1.213-4.988c.088-.016.176-.028.265-.036s.186-.012.291-.012c.089,0,.187.006.3.012s.219.02.332.036l-1.852,6.209c-.107.015-.212.028-.321.034a2.551,2.551,0,0,1-.3.014,2.362,2.362,0,0,1-.29-.014c-.106-.006-.209-.019-.316-.034l-1.331-4.7-1.392,4.7c-.115.015-.224.028-.334.034a2.547,2.547,0,0,1-.3.014,2.514,2.514,0,0,1-.294-.014,2.556,2.556,0,0,1-.3-.034Z" transform="translate(-265.517 -569.871)"/><path class="c" d="M1208.739,688.485a1.186,1.186,0,0,0-.364-1,1.707,1.707,0,0,0-1.052-.278,4.449,4.449,0,0,0-.8.068,5.314,5.314,0,0,0-.717.177,1.881,1.881,0,0,1-.232-.958,5.757,5.757,0,0,1,.909-.206,6.587,6.587,0,0,1,.955-.071,2.723,2.723,0,0,1,1.841.551,2.226,2.226,0,0,1,.627,1.761v3.883c-.281.065-.623.132-1.027.2a7.222,7.222,0,0,1-1.235.1,4.808,4.808,0,0,1-1.072-.11,2.155,2.155,0,0,1-.812-.348,1.63,1.63,0,0,1-.512-.618,2.058,2.058,0,0,1-.183-.908,1.92,1.92,0,0,1,.209-.913,1.891,1.891,0,0,1,.576-.654,2.692,2.692,0,0,1,.835-.388,3.84,3.84,0,0,1,.992-.126c.261,0,.472.006.635.019s.306.026.418.042Zm0,1.172c-.12-.017-.275-.032-.458-.05s-.346-.023-.472-.023a1.959,1.959,0,0,0-1.146.28.967.967,0,0,0-.393.846,1.043,1.043,0,0,0,.134.568.926.926,0,0,0,.334.315,1.106,1.106,0,0,0,.441.134c.161.016.315.023.458.023.188,0,.381-.011.578-.03a3.841,3.841,0,0,0,.525-.09Z" transform="translate(-319.341 -569.337)"/><path class="c" d="M1246.222,693.19c-.065,0-.131,0-.2.006s-.134,0-.2,0-.165,0-.253,0-.162-.011-.218-.017l-2.058-6.211a2.722,2.722,0,0,1,.328-.028c.11-.006.218-.008.314-.008s.222,0,.351.008a2.264,2.264,0,0,1,.326.028l1.719,5.773,1.78-5.773a4.167,4.167,0,0,1,.593-.036c.087,0,.188,0,.3.008a3.16,3.16,0,0,1,.339.028l-2.407,7.469a5.671,5.671,0,0,1-.353.834,1.909,1.909,0,0,1-.411.545,1.332,1.332,0,0,1-.514.29,2.384,2.384,0,0,1-.657.084,3.448,3.448,0,0,1-.554-.042,3.5,3.5,0,0,1-.477-.1,2.187,2.187,0,0,1,.05-.5,2.142,2.142,0,0,1,.144-.436,2.6,2.6,0,0,0,.3.081,1.97,1.97,0,0,0,.408.042,1.375,1.375,0,0,0,.293-.029.7.7,0,0,0,.263-.121,1.023,1.023,0,0,0,.224-.262,2.463,2.463,0,0,0,.2-.458Z" transform="translate(-351.729 -569.94)"/><path class="c" d="M1309.784,692.719a3.009,3.009,0,0,1-1.271-.249,2.528,2.528,0,0,1-.908-.682,2.9,2.9,0,0,1-.539-1.031,4.815,4.815,0,0,1,0-2.564,2.943,2.943,0,0,1,.539-1.03,2.6,2.6,0,0,1,.908-.688,3.3,3.3,0,0,1,2.541,0,2.589,2.589,0,0,1,.907.688,2.838,2.838,0,0,1,.539,1.03,4.738,4.738,0,0,1,0,2.564,2.8,2.8,0,0,1-.539,1.031,2.514,2.514,0,0,1-.907.682,3,3,0,0,1-1.27.249m0-.957a1.374,1.374,0,0,0,1.234-.6,3.024,3.024,0,0,0,.4-1.682,2.985,2.985,0,0,0-.4-1.674,1.565,1.565,0,0,0-2.463,0,3.039,3.039,0,0,0-.393,1.674,3.079,3.079,0,0,0,.393,1.682,1.36,1.36,0,0,0,1.229.6" transform="translate(-405.622 -569.337)"/><path class="c" d="M1351.563,672.651h-1.016a2,2,0,0,1-.05-.475,2.038,2.038,0,0,1,.05-.469h1.016v-.437a2.433,2.433,0,0,1,.574-1.75,2.229,2.229,0,0,1,1.677-.6,4.391,4.391,0,0,1,.533.033,3.247,3.247,0,0,1,.435.089,4.22,4.22,0,0,1-.067.523c-.028.143-.068.292-.115.446-.081-.017-.174-.034-.284-.055a2.2,2.2,0,0,0-.395-.03,1.929,1.929,0,0,0-.475.054.775.775,0,0,0-.364.2.99.99,0,0,0-.236.422,2.379,2.379,0,0,0-.085.7v.4h1.586a3.5,3.5,0,0,1,.035.5,2.908,2.908,0,0,1-.035.447h-1.586v5.263a2.951,2.951,0,0,1-.3.036c-.107.009-.2.013-.3.013s-.188,0-.3-.013a2.959,2.959,0,0,1-.3-.036Z" transform="translate(-442.572 -554.677)"/><path class="c" d="M1402.75,669.45c.092-.016.19-.028.3-.036s.207-.014.3-.014.19.006.3.014a2.922,2.922,0,0,1,.3.036v3.412a1.862,1.862,0,0,1,.68-.627,2.169,2.169,0,0,1,1.114-.267,2.849,2.849,0,0,1,1.028.182,2.028,2.028,0,0,1,.809.562,2.67,2.67,0,0,1,.53.969,4.6,4.6,0,0,1,.186,1.384,3.374,3.374,0,0,1-.9,2.5,3.513,3.513,0,0,1-2.6.9,5.955,5.955,0,0,1-1.092-.1,6.4,6.4,0,0,1-.954-.235Zm1.2,7.868a2.455,2.455,0,0,0,.469.1,4.53,4.53,0,0,0,.512.029,2.439,2.439,0,0,0,.831-.137,1.775,1.775,0,0,0,.658-.427,2.006,2.006,0,0,0,.441-.725,2.955,2.955,0,0,0,.165-1.048,2.922,2.922,0,0,0-.351-1.561,1.27,1.27,0,0,0-1.162-.556,1.714,1.714,0,0,0-.55.092,1.5,1.5,0,0,0-.5.289,1.447,1.447,0,0,0-.368.534,2.081,2.081,0,0,0-.142.8Z" transform="translate(-486.85 -555.084)"/><path class="c" d="M1447.371,673.471h-.787a1.99,1.99,0,0,1-.036-.225c-.008-.085-.011-.166-.011-.248s0-.165.011-.247a1.752,1.752,0,0,1,.036-.224h1.965v6.207a2.378,2.378,0,0,1-.3.034,2.888,2.888,0,0,1-.295.014,2.807,2.807,0,0,1-.284-.014,2.3,2.3,0,0,1-.3-.034Zm-.265-2.314a2.576,2.576,0,0,1-.031-.314c0-.11,0-.213,0-.3s0-.189,0-.3a2.2,2.2,0,0,1,.031-.3,3.032,3.032,0,0,1,.339-.039c.121-.008.227-.011.317-.011s.193,0,.314.011a2.769,2.769,0,0,1,.328.039,2.086,2.086,0,0,1,.028.3c0,.115.006.214.006.3s0,.191-.006.3a2.418,2.418,0,0,1-.028.314,3.129,3.129,0,0,1-.323.037c-.116.008-.218.012-.309.012s-.2,0-.326-.012-.235-.02-.339-.037" transform="translate(-523.955 -555.497)"/><path class="c" d="M1472.15,669.457c.09-.016.188-.025.3-.033s.208-.014.3-.014.188,0,.3.014.211.017.3.033v8.873a2.779,2.779,0,0,1-.3.036c-.115.009-.213.012-.3.012s-.189,0-.3-.012a2.654,2.654,0,0,1-.3-.036Zm1.525,5.653,1.972-2.987a3.115,3.115,0,0,1,.315-.039c.1-.008.213-.011.326-.011s.236,0,.345.011.219.02.334.039l-1.974,2.9,2.313,3.305c-.114.015-.222.029-.33.036s-.211.012-.324.012-.225,0-.34-.012-.225-.02-.339-.036Z" transform="translate(-545.659 -555.092)"/><path class="c" d="M1510.96,673.471h-.784a1.4,1.4,0,0,1-.037-.225c-.008-.085-.013-.166-.013-.248s0-.165.013-.247a1.266,1.266,0,0,1,.037-.224h1.96v6.207a2.285,2.285,0,0,1-.3.034,2.943,2.943,0,0,1-.3.014c-.078,0-.176,0-.286-.014a2.38,2.38,0,0,1-.3-.034Zm-.266-2.314a2.971,2.971,0,0,1-.031-.314c0-.11,0-.213,0-.3s0-.189,0-.3a2.514,2.514,0,0,1,.031-.3,3.112,3.112,0,0,1,.34-.039c.12-.008.225-.011.314-.011s.194,0,.315.011a2.624,2.624,0,0,1,.326.039,2.074,2.074,0,0,1,.029.3c.008.115.008.214.008.3s0,.191-.008.3a2.409,2.409,0,0,1-.029.314,2.964,2.964,0,0,1-.322.037c-.116.008-.219.012-.306.012s-.208,0-.327-.012-.235-.02-.34-.037" transform="translate(-577.839 -555.497)"/><path class="c" d="M1536.065,686.365c.089-.016.174-.028.258-.036s.174-.013.263-.013.171.006.247.013.162.02.249.036c.023.124.048.286.074.492a4.568,4.568,0,0,1,.033.511,2.8,2.8,0,0,1,.312-.41,2.289,2.289,0,0,1,.428-.368,2.312,2.312,0,0,1,.556-.266,2.086,2.086,0,0,1,.69-.1,1.93,1.93,0,0,1,1.575.61,2.785,2.785,0,0,1,.508,1.809v3.934a2.639,2.639,0,0,1-.3.034,2.738,2.738,0,0,1-.3.014,2.579,2.579,0,0,1-.3-.014,2.492,2.492,0,0,1-.295-.034v-3.606a2.36,2.36,0,0,0-.267-1.266.944.944,0,0,0-.848-.4,1.727,1.727,0,0,0-.643.12,1.426,1.426,0,0,0-.531.376,1.882,1.882,0,0,0-.368.66,3.007,3.007,0,0,0-.14.972v3.148a2.673,2.673,0,0,1-.3.034,2.571,2.571,0,0,1-.3.014,2.7,2.7,0,0,1-.3-.014,2.6,2.6,0,0,1-.3-.034Z" transform="translate(-599.819 -569.337)"/><path class="c" d="M1582.328,691.768a2.4,2.4,0,0,1,1.561.458,1.535,1.535,0,0,1,.483,1.2,1.62,1.62,0,0,1-.253.893,2.31,2.31,0,0,1-.7.676,3.562,3.562,0,0,1-1.057.433,5.423,5.423,0,0,1-1.326.152,3.779,3.779,0,0,1-1.9-.387,1.318,1.318,0,0,1-.654-1.224,1.572,1.572,0,0,1,.266-.888,1.956,1.956,0,0,1,.693-.623,1.443,1.443,0,0,1-.407-.394,1,1,0,0,1-.165-.586,1.463,1.463,0,0,1,.2-.775,2.124,2.124,0,0,1,.54-.581,2.067,2.067,0,0,1-.641-.721,2.019,2.019,0,0,1-.242-1,2.173,2.173,0,0,1,.171-.859,2,2,0,0,1,.49-.7,2.318,2.318,0,0,1,.793-.466,3.174,3.174,0,0,1,1.078-.171,2.856,2.856,0,0,1,.985.161,2.618,2.618,0,0,1,.758.4,1.966,1.966,0,0,1,.652-.32,3.1,3.1,0,0,1,.906-.127,2.225,2.225,0,0,1,.052.509c0,.089,0,.18-.013.278s-.021.193-.039.291h-1.085a1.754,1.754,0,0,1,.2.445,1.97,1.97,0,0,1,.071.558,2.135,2.135,0,0,1-.18.9,1.979,1.979,0,0,1-.516.683,2.368,2.368,0,0,1-.793.438,3.228,3.228,0,0,1-1,.151,3.323,3.323,0,0,1-.9-.11,1.235,1.235,0,0,0-.332.3.661.661,0,0,0-.165.429.529.529,0,0,0,.158.382,1.056,1.056,0,0,0,.7.175Zm-1.635.955a1,1,0,0,0-.815.292,1.042,1.042,0,0,0-.273.724.809.809,0,0,0,.107.438.784.784,0,0,0,.312.27,1.456,1.456,0,0,0,.471.146,4.136,4.136,0,0,0,.6.042,3.038,3.038,0,0,0,1.514-.317.943.943,0,0,0,.544-.809.684.684,0,0,0-.23-.555,1.379,1.379,0,0,0-.847-.2Zm.559-3.025a1.22,1.22,0,0,0,.967-.364,1.376,1.376,0,0,0,.314-.932,1.409,1.409,0,0,0-.314-.947,1.2,1.2,0,0,0-.967-.373,1.179,1.179,0,0,0-.963.373,1.426,1.426,0,0,0-.309.947,1.391,1.391,0,0,0,.309.932,1.2,1.2,0,0,0,.963.364" transform="translate(-635.759 -569.329)"/><path class="b" d="M1339.4,80.88a.548.548,0,1,1-.557-.536.547.547,0,0,1,.557.536" transform="translate(-432.241 -55.927)"/><path class="b" d="M1315.65,81.992a.547.547,0,1,1-.584-.506.548.548,0,0,1,.584.506" transform="translate(-412.117 -56.894)"/><path class="b" d="M1291.991,84.342a.547.547,0,1,1-.609-.477.549.549,0,0,1,.609.477" transform="translate(-392.071 -58.908)"/><path class="b" d="M1268.479,87.943a.547.547,0,1,1-.632-.441.545.545,0,0,1,.632.441" transform="translate(-372.152 -61.986)"/><path class="b" d="M1245.2,92.763a.547.547,0,1,1-.653-.408.546.546,0,0,1,.653.408" transform="translate(-352.429 -66.093)"/><path class="b" d="M1222.188,98.795a.547.547,0,0,1-1.052.3.547.547,0,0,1,1.052-.3" transform="translate(-332.936 -71.227)"/><path class="b" d="M1199.537,106.02a.547.547,0,1,1-.7-.339.552.552,0,0,1,.7.339" transform="translate(-313.75 -77.373)"/><path class="b" d="M1177.286,114.42a.547.547,0,1,1-.713-.3.549.549,0,0,1,.713.3" transform="translate(-294.903 -84.511)"/><path class="b" d="M1155.507,123.979a.547.547,0,1,1-.727-.266.545.545,0,0,1,.727.266" transform="translate(-276.457 -92.634)"/><path class="b" d="M1134.268,134.658a.546.546,0,1,1-.739-.228.547.547,0,0,1,.739.228" transform="translate(-258.472 -101.704)"/><path class="b" d="M1113.611,146.435a.547.547,0,1,1-.75-.188.548.548,0,0,1,.75.188" transform="translate(-240.979 -111.706)"/><path class="b" d="M1093.6,159.28a.547.547,0,1,1-.762-.146.546.546,0,0,1,.762.146" transform="translate(-224.034 -122.611)"/><path class="b" d="M1074.286,173.163a.546.546,0,1,1-.767-.109.545.545,0,0,1,.767.109" transform="translate(-207.681 -134.395)"/><path class="b" d="M1055.721,188.025a.546.546,0,1,1-.771-.068.546.546,0,0,1,.771.068" transform="translate(-191.966 -147.008)"/><path class="b" d="M1037.966,203.839a.546.546,0,1,1-.772-.026.545.545,0,0,1,.772.026" transform="translate(-176.936 -160.428)"/><path class="b" d="M1021.066,220.565a.549.549,0,0,1,.014.77.543.543,0,0,1-.775.016.547.547,0,1,1,.761-.786" transform="translate(-162.632 -174.618)"/><path class="b" d="M1005.06,238.15a.547.547,0,0,1-.716.826.547.547,0,1,1,.716-.826" transform="translate(-149.089 -189.536)"/><path class="b" d="M989.987,256.55a.548.548,0,1,1-.769.093.547.547,0,0,1,.769-.093" transform="translate(-136.333 -205.143)"/><path class="b" d="M975.914,275.718a.549.549,0,0,1,.132.758.542.542,0,0,1-.762.138.548.548,0,0,1,.63-.9" transform="translate(-124.428 -221.4)"/><path class="b" d="M962.847,295.584a.547.547,0,1,1-.755.174.547.547,0,0,1,.755-.174" transform="translate(-113.375 -238.248)"/><path class="b" d="M950.845,316.118a.547.547,0,0,1-.533.955.547.547,0,0,1,.533-.955" transform="translate(-103.225 -255.66)"/><path class="b" d="M939.94,337.249a.548.548,0,1,1-.731.253.549.549,0,0,1,.731-.253" transform="translate(-94.007 -273.578)"/><path class="b" d="M930.148,358.924a.547.547,0,0,1-.427,1.006.547.547,0,0,1,.427-1.006" transform="translate(-85.732 -291.954)"/><path class="b" d="M921.5,381.074a.548.548,0,1,1-.7.328.547.547,0,0,1,.7-.328" transform="translate(-78.426 -310.734)"/><path class="b" d="M914.039,403.651a.548.548,0,1,1-.682.365.544.544,0,0,1,.682-.365" transform="translate(-72.127 -329.873)"/><path class="b" d="M907.763,426.586a.547.547,0,1,1-.661.4.546.546,0,0,1,.661-.4" transform="translate(-66.832 -349.314)"/><path class="b" d="M902.69,449.831a.547.547,0,0,1-.21,1.073.547.547,0,0,1,.21-1.073" transform="translate(-62.558 -369.016)"/><path class="b" d="M898.844,473.3a.547.547,0,0,1-.152,1.083.547.547,0,0,1,.152-1.083" transform="translate(-59.323 -388.907)"/><path class="b" d="M896.231,496.926a.547.547,0,1,1-.592.5.545.545,0,0,1,.592-.5" transform="translate(-57.131 -408.93)"/><path class="b" d="M894.854,520.676a.546.546,0,0,1-.039,1.092.546.546,0,1,1,.039-1.092" transform="translate(-55.987 -429.057)"/><path class="b" d="M894.732,544.45a.547.547,0,1,1-.536.556.546.546,0,0,1,.536-.556" transform="translate(-55.91 -449.203)"/><path class="b" d="M895.844,568.2a.546.546,0,1,1-.506.584.545.545,0,0,1,.506-.584" transform="translate(-56.877 -469.331)"/><path class="b" d="M898.207,591.878a.545.545,0,1,1-.474.607.545.545,0,0,1,.474-.607" transform="translate(-58.904 -489.389)"/><path class="b" d="M901.8,615.375a.548.548,0,1,1-.441.635.546.546,0,0,1,.441-.635" transform="translate(-61.971 -509.297)"/><path class="b" d="M906.62,638.672a.545.545,0,1,1-.408.654.543.543,0,0,1,.408-.654" transform="translate(-66.079 -529.033)"/><path class="b" d="M912.653,661.67a.547.547,0,1,1-.371.675.544.544,0,0,1,.371-.675" transform="translate(-71.216 -548.515)"/><path class="b" d="M919.88,684.329a.545.545,0,1,1-.335.693.539.539,0,0,1,.335-.693" transform="translate(-77.364 -567.708)"/><path class="b" d="M928.282,706.575a.547.547,0,1,1-.3.71.544.544,0,0,1,.3-.71" transform="translate(-84.506 -586.551)"/><path class="b" d="M937.834,728.352a.545.545,0,1,1-.264.724.54.54,0,0,1,.264-.724" transform="translate(-92.62 -604.993)"/><path class="b" d="M948.518,749.6a.546.546,0,1,1-.224.738.541.541,0,0,1,.224-.738" transform="translate(-101.697 -622.988)"/><path class="b" d="M960.3,770.255a.541.541,0,0,1,.745.183.546.546,0,1,1-.745-.183" transform="translate(-111.696 -640.479)"/><path class="b" d="M973.142,790.262a.546.546,0,1,1-.146.758.539.539,0,0,1,.146-.758" transform="translate(-122.603 -657.42)"/><path class="b" d="M987.016,809.576a.538.538,0,0,1,.758.1.545.545,0,1,1-.758-.1" transform="translate(-134.379 -673.772)"/><path class="b" d="M1001.878,828.142a.546.546,0,1,1-.067.767.541.541,0,0,1,.067-.767" transform="translate(-146.992 -689.49)"/><path class="b" d="M1017.7,845.891a.547.547,0,0,1,.744.8.547.547,0,0,1-.744-.8" transform="translate(-160.418 -704.513)"/><path class="b" d="M1034.421,862.8a.545.545,0,1,1,.012.77.538.538,0,0,1-.012-.77" transform="translate(-174.605 -718.828)"/><path class="b" d="M1052.007,878.8a.547.547,0,1,1,.054.77.54.54,0,0,1-.054-.77" transform="translate(-189.522 -732.365)"/><path class="b" d="M1070.4,893.869a.547.547,0,0,1,.862.675.547.547,0,1,1-.862-.675" transform="translate(-205.128 -745.117)"/><path class="b" d="M1089.576,907.95a.541.541,0,0,1,.755-.135.545.545,0,1,1-.755.135" transform="translate(-221.388 -757.029)"/><path class="b" d="M1109.45,921a.54.54,0,0,1,.748-.174.546.546,0,1,1-.748.174" transform="translate(-238.242 -768.068)"/><path class="b" d="M1129.985,933a.546.546,0,1,1,.209.742.547.547,0,0,1-.209-.742" transform="translate(-255.655 -778.218)"/><path class="b" d="M1151.11,943.924a.547.547,0,1,1,.252.732.545.545,0,0,1-.252-.732" transform="translate(-273.568 -787.451)"/><path class="b" d="M1172.776,953.713a.547.547,0,1,1,.29.718.542.542,0,0,1-.29-.718" transform="translate(-291.937 -795.724)"/><path class="b" d="M1194.94,962.359a.546.546,0,0,1,1.025.375.546.546,0,0,1-1.025-.375" transform="translate(-310.728 -803.027)"/><path class="b" d="M1217.517,969.823a.547.547,0,1,1,.363.681.542.542,0,0,1-.363-.681" transform="translate(-329.866 -809.329)"/><path class="b" d="M1240.455,976.106a.54.54,0,0,1,.659-.4.545.545,0,0,1,.4.663.547.547,0,0,1-1.061-.266" transform="translate(-349.311 -814.629)"/><path class="b" d="M1263.691,981.173a.547.547,0,1,1,.433.64.546.546,0,0,1-.433-.64" transform="translate(-369.006 -818.901)"/><path class="b" d="M1287.161,985.021a.547.547,0,1,1,.464.617.543.543,0,0,1-.464-.617" transform="translate(-388.897 -822.138)"/><path class="b" d="M1310.788,987.643a.547.547,0,1,1,.5.592.549.549,0,0,1-.5-.592" transform="translate(-408.922 -824.337)"/><path class="b" d="M1334.548,989.017a.534.534,0,0,1,.559-.523.545.545,0,1,1-.559.523" transform="translate(-429.057 -825.478)"/><path class="b" d="M1358.321,989.148a.536.536,0,0,1,.533-.55.545.545,0,1,1-.533.55" transform="translate(-449.202 -825.566)"/><path class="b" d="M1382.076,988.028a.547.547,0,1,1,.584.506.541.541,0,0,1-.584-.506" transform="translate(-469.331 -824.591)"/><path class="b" d="M1405.741,985.663a.546.546,0,1,1,.607.478.546.546,0,0,1-.607-.478" transform="translate(-489.382 -822.565)"/><path class="b" d="M1429.245,982.07a.538.538,0,0,1,.441-.628.546.546,0,1,1,.191,1.075.551.551,0,0,1-.632-.447" transform="translate(-509.295 -819.495)"/><path class="b" d="M1452.546,977.255a.536.536,0,0,1,.406-.649.544.544,0,1,1-.406.649" transform="translate(-529.035 -815.391)"/><path class="b" d="M1475.532,971.224a.537.537,0,0,1,.373-.669.549.549,0,0,1,.68.373.543.543,0,0,1-.377.674.548.548,0,0,1-.676-.377" transform="translate(-548.506 -810.257)"/><path class="b" d="M1498.2,963.985a.539.539,0,0,1,.335-.69.545.545,0,1,1-.335.69" transform="translate(-567.707 -804.098)"/><path class="b" d="M1520.442,955.584a.532.532,0,0,1,.3-.705.544.544,0,1,1-.3.705" transform="translate(-586.546 -796.957)"/><path class="b" d="M1542.214,946.03a.536.536,0,0,1,.261-.722.549.549,0,0,1,.73.262.546.546,0,0,1-.991.46" transform="translate(-604.985 -788.837)"/><path class="b" d="M1563.47,935.341a.532.532,0,0,1,.222-.733.545.545,0,1,1-.222.733" transform="translate(-622.986 -779.759)"/><path class="b" d="M1584.115,923.57a.536.536,0,0,1,.182-.746.553.553,0,0,1,.756.19.537.537,0,0,1-.191.744.544.544,0,0,1-.747-.188" transform="translate(-640.468 -769.765)"/><path class="b" d="M1604.132,910.716a.533.533,0,0,1,.145-.753.544.544,0,0,1,.759.149.544.544,0,1,1-.9.6" transform="translate(-657.416 -758.852)"/><path class="b" d="M1623.443,896.84a.535.535,0,0,1,.1-.761.549.549,0,0,1,.769.11.544.544,0,1,1-.871.651" transform="translate(-673.765 -747.074)"/><path class="b" d="M1642.005,881.985a.537.537,0,0,1,.065-.766.547.547,0,0,1,.772.067.545.545,0,0,1-.837.7" transform="translate(-689.481 -734.466)"/><path class="b" d="M1659.757,866.166a.536.536,0,0,1,.025-.767.551.551,0,0,1,.776.028.545.545,0,0,1-.8.739" transform="translate(-704.507 -721.045)"/><path class="b" d="M1676.665,849.438a.542.542,0,0,1-.015-.767.55.55,0,0,1,.778-.014.541.541,0,0,1,.009.77.548.548,0,0,1-.772.011" transform="translate(-718.82 -706.852)"/><path class="b" d="M1692.669,831.852a.536.536,0,0,1-.057-.764.548.548,0,0,1,.775-.053.544.544,0,1,1-.718.817" transform="translate(-732.361 -691.935)"/><path class="b" d="M1707.735,813.455a.534.534,0,0,1-.1-.758.548.548,0,0,1,.771-.1.545.545,0,0,1-.674.856" transform="translate(-745.11 -676.331)"/><path class="b" d="M1721.81,794.294a.539.539,0,0,1-.133-.756.548.548,0,0,1,.764-.133.537.537,0,0,1,.129.759.544.544,0,0,1-.76.13" transform="translate(-757.018 -660.079)"/><path class="b" d="M1734.88,774.423a.535.535,0,0,1-.176-.747.546.546,0,0,1,.755-.175.545.545,0,0,1-.579.923" transform="translate(-768.071 -643.226)"/><path class="b" d="M1746.88,753.888a.534.534,0,0,1-.216-.736.549.549,0,0,1,.746-.214.544.544,0,0,1-.53.951" transform="translate(-778.217 -625.815)"/><path class="b" d="M1757.782,732.754a.535.535,0,0,1-.251-.724.548.548,0,0,1,.733-.255.545.545,0,0,1-.482.978" transform="translate(-787.437 -607.894)"/><path class="b" d="M1767.562,711.088a.533.533,0,0,1-.292-.71.551.551,0,0,1,.719-.29.544.544,0,1,1-.427,1" transform="translate(-795.7 -589.526)"/><path class="b" d="M1776.218,688.921a.543.543,0,0,1-.327-.7.556.556,0,0,1,.7-.328.546.546,0,0,1-.377,1.025" transform="translate(-803.015 -570.731)"/><path class="b" d="M1783.686,666.36a.541.541,0,0,1-.363-.68.549.549,0,0,1,.685-.36.537.537,0,0,1,.357.682.542.542,0,0,1-.679.359" transform="translate(-809.319 -551.607)"/><path class="b" d="M1789.953,643.422a.537.537,0,0,1-.4-.654.55.55,0,0,1,.666-.4.542.542,0,1,1-.267,1.051" transform="translate(-814.607 -532.166)"/><path class="b" d="M1795.031,620.177a.533.533,0,0,1-.429-.634.549.549,0,0,1,.645-.432.544.544,0,1,1-.216,1.066" transform="translate(-818.889 -512.462)"/><path class="b" d="M1798.88,596.715a.535.535,0,0,1-.463-.609.55.55,0,0,1,.621-.466.543.543,0,0,1-.158,1.075" transform="translate(-822.127 -492.577)"/><path class="b" d="M1801.5,573.076a.53.53,0,0,1-.492-.581.545.545,0,0,1,.595-.5.542.542,0,1,1-.1,1.079" transform="translate(-824.327 -472.544)"/><path class="b" d="M1802.885,549.323a.532.532,0,0,1-.521-.559.545.545,0,0,1,.564-.53.545.545,0,0,1-.043,1.089" transform="translate(-825.476 -452.41)"/><path class="b" d="M1803,525.549a.532.532,0,0,1-.55-.529.547.547,0,0,1,.539-.556.543.543,0,1,1,.011,1.086" transform="translate(-825.549 -432.266)"/><path class="b" d="M1801.88,501.789a.533.533,0,0,1-.579-.5.548.548,0,0,1,.509-.584.543.543,0,1,1,.07,1.084" transform="translate(-824.575 -412.133)"/><path class="b" d="M1799.521,478.129a.533.533,0,0,1-.6-.469.547.547,0,0,1,.48-.609.542.542,0,1,1,.124,1.078" transform="translate(-822.551 -392.086)"/><path class="b" d="M1795.929,454.619a.536.536,0,0,1-.629-.438.545.545,0,0,1,.446-.634.544.544,0,1,1,.183,1.072" transform="translate(-819.483 -372.166)"/><path class="b" d="M1791.111,431.327a.535.535,0,0,1-.65-.405.547.547,0,0,1,.413-.655.543.543,0,0,1,.236,1.061" transform="translate(-815.378 -352.433)"/><path class="b" d="M1785.076,408.324a.537.537,0,0,1-.67-.37.546.546,0,0,1,.376-.677.536.536,0,0,1,.673.378.542.542,0,0,1-.379.669" transform="translate(-810.241 -332.946)"/><path class="b" d="M1777.848,385.667a.534.534,0,0,1-.686-.334.543.543,0,0,1,.34-.7.531.531,0,0,1,.688.342.536.536,0,0,1-.342.688" transform="translate(-804.094 -313.754)"/><path class="b" d="M1769.443,363.418a.538.538,0,0,1-.708-.3.544.544,0,0,1,.307-.711.528.528,0,0,1,.7.3.537.537,0,0,1-.3.7" transform="translate(-796.945 -294.91)"/><path class="b" d="M1759.877,341.646a.535.535,0,0,1-.719-.259.541.541,0,0,1,.27-.725.53.53,0,0,1,.719.266.536.536,0,0,1-.27.719" transform="translate(-788.82 -276.471)"/><path class="b" d="M1749.2,320.4a.536.536,0,0,1-.731-.222.548.548,0,0,1,.231-.739.531.531,0,0,1,.731.225.539.539,0,0,1-.231.736" transform="translate(-779.755 -258.478)"/><path class="b" d="M1737.431,299.737a.541.541,0,0,1-.746-.185.546.546,0,0,1,.194-.748.528.528,0,0,1,.741.188.541.541,0,0,1-.189.746" transform="translate(-769.756 -240.978)"/><path class="b" d="M1724.581,279.721a.538.538,0,0,1-.755-.143.549.549,0,0,1,.152-.761.533.533,0,0,1,.753.151.541.541,0,0,1-.151.753" transform="translate(-758.846 -224.03)"/><path class="b" d="M1710.708,260.41a.532.532,0,0,1-.759-.106.544.544,0,0,1,.113-.764.53.53,0,0,1,.758.108.537.537,0,0,1-.112.761" transform="translate(-747.073 -207.68)"/><path class="b" d="M1695.843,241.843a.534.534,0,0,1-.764-.065.545.545,0,0,1,.071-.77.534.534,0,0,1,.766.072.542.542,0,0,1-.073.764" transform="translate(-734.457 -191.961)"/><path class="b" d="M1680.028,224.091a.537.537,0,0,1-.767-.025.547.547,0,0,1,.032-.773.542.542,0,1,1,.734.8" transform="translate(-721.038 -176.935)"/><path class="b" d="M1663.3,207.182a.532.532,0,0,1-.764.019.542.542,0,0,1-.008-.775.529.529,0,0,1,.764-.011.538.538,0,0,1,.008.767" transform="translate(-706.85 -162.623)"/><path class="b" d="M1645.713,191.177a.535.535,0,0,1-.767.056.543.543,0,0,1-.048-.77.532.532,0,0,1,.766-.051.541.541,0,0,1,.05.766" transform="translate(-691.926 -149.079)"/><path class="b" d="M1627.323,176.109a.542.542,0,1,1-.85-.672.525.525,0,0,1,.758-.092.538.538,0,0,1,.092.764" transform="translate(-676.328 -136.327)"/><path class="b" d="M1608.161,162.033a.536.536,0,0,1-.757.133.544.544,0,0,1-.127-.759.528.528,0,0,1,.755-.132.538.538,0,0,1,.129.758" transform="translate(-660.078 -124.419)"/><path class="b" d="M1588.292,148.968a.534.534,0,0,1-.745.175.548.548,0,0,1-.169-.755.53.53,0,0,1,.747-.171.539.539,0,0,1,.168.75" transform="translate(-643.229 -113.367)"/><path class="b" d="M1567.757,136.965a.537.537,0,0,1-.738.214.545.545,0,0,1-.206-.744.529.529,0,0,1,.738-.213.541.541,0,0,1,.206.742" transform="translate(-625.815 -103.216)"/><path class="b" d="M1546.635,126.058a.535.535,0,0,1-.724.251.546.546,0,0,1-.247-.733.533.533,0,0,1,.727-.248.543.543,0,0,1,.244.73" transform="translate(-607.907 -93.996)"/><path class="b" d="M1524.956,116.28a.533.533,0,0,1-.71.289.545.545,0,0,1-.284-.719.531.531,0,0,1,.713-.283.537.537,0,0,1,.281.713" transform="translate(-589.526 -85.733)"/><path class="b" d="M1502.81,107.633a.532.532,0,0,1-.694.326.542.542,0,0,1-.32-.7.525.525,0,0,1,.694-.32.54.54,0,0,1,.32.7" transform="translate(-570.752 -78.428)"/><path class="b" d="M1480.241,100.173a.534.534,0,0,1-.677.363.544.544,0,0,1-.355-.685.526.526,0,0,1,.676-.357.538.538,0,0,1,.357.679" transform="translate(-551.619 -72.131)"/><path class="b" d="M1457.3,93.9a.535.535,0,0,1-.657.4.542.542,0,0,1-.388-.666.525.525,0,0,1,.654-.393.536.536,0,0,1,.391.66" transform="translate(-532.177 -66.839)"/><path class="b" d="M1434.066,88.835a.535.535,0,0,1-.632.435.545.545,0,0,1-.426-.646.525.525,0,0,1,.635-.425.532.532,0,0,1,.422.637" transform="translate(-512.483 -62.571)"/><path class="b" d="M1410.6,84.983a.54.54,0,1,1-1.069-.157.528.528,0,0,1,.612-.46.54.54,0,0,1,.457.617" transform="translate(-492.593 -59.329)"/><path class="b" d="M1386.971,82.379a.534.534,0,0,1-.586.5.544.544,0,0,1-.488-.6.525.525,0,0,1,.585-.488.537.537,0,0,1,.488.59" transform="translate(-472.569 -57.148)"/><path class="b" d="M1363.216,81a.537.537,0,0,1-.557.528.545.545,0,0,1-.522-.57.528.528,0,0,1,.561-.522.538.538,0,0,1,.519.564" transform="translate(-452.435 -56.008)"/></g></svg>